<svg width="30" height="23" viewBox="0 0 30 23" fill="none" xmlns="http://www.w3.org/2000/svg">
<g clip-path="url(#clip0_149_516)">
<path d="M0.350063 8.75527C-0.370594 7.55586 0.0570938 6.02852 1.30547 5.33672L10.3453 0.335477C11.5922 -0.355152 13.1906 0.0547149 13.9125 1.25107L21.7406 14.2447C22.4578 15.4441 22.0312 16.9715 20.7844 17.6633L11.7422 22.6631C10.4953 23.3549 8.90156 22.9461 8.17969 21.7512L0.350063 8.75527ZM2.29875 7.67715L10.1297 20.673C10.2281 20.8348 10.4484 20.8932 10.6172 20.7584L19.6594 15.7945C19.8328 15.7002 19.8891 15.4891 19.7906 15.3229L11.9625 2.3292C11.8641 2.16434 11.6438 2.10773 11.4703 2.20297L2.43047 7.20547C2.25844 7.2998 2.19938 7.51094 2.29875 7.67715ZM23.0391 13.526L16.6266 2.88623C16.7109 2.87859 16.7906 2.83457 16.875 2.83457H27.375C28.8234 2.83457 30 4.00119 30 5.3502V20.4844C30 21.8725 28.8234 23 27.375 23H16.875C16.2375 23 15.6469 22.7799 15.1922 22.3756L21.5344 18.9076C23.4984 17.8205 24.1734 15.4127 23.0391 13.526Z" fill="#6B7A99"/>
</g>
<defs>
<clipPath id="clip0_149_516">
<rect width="30" height="23" fill="white"/>
</clipPath>
</defs>
</svg>
