<svg width="25" height="29" viewBox="0 0 25 29" fill="none" xmlns="http://www.w3.org/2000/svg">
<path d="M9.82701 13.5993C9.35268 14.177 8.50446 14.177 7.97991 13.5993L3.5173 9.06802C2.99442 8.58658 2.99442 7.72564 3.5173 7.19322C4.04018 6.66646 4.88839 6.66646 5.41127 7.19322L8.92857 10.7672L16.9085 2.66367C17.433 2.13294 18.2812 2.13294 18.7556 2.66367C19.3248 3.19439 19.3248 4.05533 18.7556 4.58605L9.82701 13.5993ZM9.82701 26.2868C9.35268 26.8645 8.50446 26.8645 7.97991 26.2868L0.392243 18.5836C-0.130748 18.1022 -0.130748 17.2413 0.392243 16.7088C0.915179 16.1821 1.76339 16.1821 2.28627 16.7088L8.92857 23.4547L22.7121 9.45884C23.2366 8.93208 24.0848 8.93208 24.5592 9.45884C25.1283 9.99126 25.1283 10.8522 24.5592 11.3336L9.82701 26.2868Z" fill="#92A7BA"/>
</svg>
