<svg width="21" height="27" viewBox="0 0 21 27" fill="none" xmlns="http://www.w3.org/2000/svg">
<g clip-path="url(#clip0_149_510)">
<path d="M19.9773 4.92434L15.896 0.988242C15.2359 0.355535 14.3445 0 13.4203 0H3.5C1.5668 0 0 1.51084 0 3.375L0.000355469 23.625C0.000355469 25.4886 1.56715 27 3.50036 27H17.5C19.425 27 21 25.4813 21 23.625V7.30898C21 6.41777 20.6336 5.5582 19.9773 4.92434ZM18.375 23.625C18.375 24.091 17.9832 24.4688 17.5 24.4688H3.50109C3.01777 24.4688 2.62609 24.091 2.62609 23.625L2.625 3.38186C2.625 2.91589 3.01678 2.53811 3.5 2.53811H12.25V6.75C12.25 7.68182 13.0337 8.4375 14 8.4375H18.3258V23.625H18.375ZM9.11641 17.1229L7.44297 15.5566C6.93027 15.0623 6.09984 15.0623 5.58687 15.5566C5.07391 16.051 5.07418 16.8518 5.58687 17.3464L8.21187 19.8777C8.50391 20.1182 8.84297 20.25 9.1875 20.25C9.20459 20.25 9.22168 20.25 9.23706 20.2483C9.60281 20.2352 9.94635 20.0753 10.1837 19.8083L15.4337 13.9021C15.9054 13.3716 15.8422 12.5721 15.2918 12.1176C14.7433 11.6644 13.9143 11.7237 13.4412 12.2543L9.11641 17.1229Z" fill="#6B7A99"/>
</g>
<defs>
<clipPath id="clip0_149_510">
<rect width="21" height="27" fill="white"/>
</clipPath>
</defs>
</svg>
