<svg width="42" height="43" viewBox="0 0 42 43" fill="none" xmlns="http://www.w3.org/2000/svg">
<path d="M21 0.25C32.5664 0.25 42 9.68359 42 21.25C42 32.8984 32.5664 42.25 21 42.25C9.35156 42.25 0 32.8984 0 21.25C0 9.68359 9.35156 0.25 21 0.25ZM21 38.3125C21.5742 38.3125 23.1328 37.7383 24.8555 34.375C25.5938 32.8984 26.168 31.1758 26.6602 29.125H15.2578C15.75 31.1758 16.3242 32.8984 17.0625 34.375C18.7852 37.7383 20.3438 38.3125 21 38.3125ZM14.6016 25.1875H27.3164C27.4805 23.957 27.5625 22.6445 27.5625 21.25C27.5625 19.9375 27.4805 18.625 27.3164 17.3125H14.6016C14.4375 18.625 14.4375 19.9375 14.4375 21.25C14.4375 22.6445 14.4375 23.957 14.6016 25.1875ZM26.6602 13.375C26.168 11.4062 25.5938 9.68359 24.8555 8.20703C23.1328 4.84375 21.5742 4.1875 21 4.1875C20.3438 4.1875 18.7852 4.84375 17.0625 8.20703C16.3242 9.68359 15.75 11.4062 15.2578 13.375H26.6602ZM31.2539 17.3125C31.418 18.625 31.5 19.9375 31.5 21.25C31.5 22.6445 31.418 23.957 31.2539 25.1875H37.5703C37.8984 23.957 38.0625 22.6445 38.0625 21.25C38.0625 19.9375 37.8984 18.625 37.5703 17.3125H31.2539ZM28.0547 5.74609C29.2031 7.87891 30.1055 10.5039 30.6797 13.375H36.0938C34.3711 10.0117 31.5 7.30469 28.0547 5.74609ZM13.8633 5.74609C10.418 7.30469 7.54688 10.0117 5.82422 13.375H11.2383C11.8125 10.5039 12.7148 7.87891 13.8633 5.74609ZM3.9375 21.25C3.9375 22.6445 4.01953 23.957 4.34766 25.1875H10.6641C10.5 23.957 10.5 22.6445 10.5 21.25C10.5 19.9375 10.5 18.625 10.6641 17.3125H4.34766C4.01953 18.625 3.9375 19.9375 3.9375 21.25ZM36.0938 29.125H30.6797C30.1055 32.0781 29.2031 34.7031 28.0547 36.8359C31.5 35.2773 34.3711 32.5703 36.0938 29.125ZM11.2383 29.125H5.82422C7.54688 32.5703 10.418 35.2773 13.8633 36.8359C12.7148 34.7031 11.8125 32.0781 11.2383 29.125Z" fill="url(#paint0_linear_149_590)"/>
<defs>
<linearGradient id="paint0_linear_149_590" x1="30.975" y1="41.0673" x2="9.74644" y2="5.2412" gradientUnits="userSpaceOnUse">
<stop stop-color="#6B7A99"/>
<stop offset="0.261229" stop-color="#92A7BA"/>
<stop offset="0.495356" stop-color="#8EB4CC"/>
<stop offset="0.750408" stop-color="#92A7BA"/>
<stop offset="1" stop-color="#6B7A99"/>
</linearGradient>
</defs>
</svg>
