<svg width="26" height="26" viewBox="0 0 26 26" fill="none" xmlns="http://www.w3.org/2000/svg">
<g clip-path="url(#clip0_149_512)">
<path d="M25.5987 23.918L18.794 17.1133C20.2666 15.3105 21.0791 13.0406 21.0791 10.5625C21.0791 4.72773 16.3499 0 10.5166 0C4.68338 0 -0.000183105 4.72926 -0.000183105 10.5625C-0.000183105 16.3957 4.72858 21.125 10.5166 21.125C12.9942 21.125 15.2672 20.2663 17.0674 18.8378L23.8721 25.6425C24.1565 25.8832 24.4713 26 24.7811 26C25.0908 26 25.4047 25.881 25.6428 25.643C26.1166 25.1672 26.1166 24.3953 25.5987 23.918ZM2.43733 10.5625C2.43733 6.08258 6.08241 2.4375 10.5623 2.4375C15.0422 2.4375 18.6873 6.08258 18.6873 10.5625C18.6873 15.0424 15.0422 18.6875 10.5623 18.6875C6.08241 18.6875 2.43733 15.0414 2.43733 10.5625Z" fill="#8EB4CC"/>
</g>
<defs>
<clipPath id="clip0_149_512">
<rect width="26" height="26" fill="white"/>
</clipPath>
</defs>
</svg>
