<svg width="28" height="28" viewBox="0 0 28 28" fill="none" xmlns="http://www.w3.org/2000/svg">
<g clip-path="url(#clip0_149_518)">
<path d="M9.625 6.99974H17.4508L17.4504 10.0622C17.4504 10.5929 17.7701 11.0712 18.2609 11.2747C18.7517 11.4781 19.3153 11.3652 19.6915 10.9901L24.0671 6.61513C24.5797 6.10265 24.5797 5.27146 24.0671 4.75903L19.6915 0.384035C19.3154 0.00893322 18.7514 -0.103887 18.2609 0.0994957C17.7703 0.302879 17.4508 0.781777 17.4508 1.31225V4.37475H9.625C4.31758 4.37475 0 8.64584 0 13.9997C0 14.7244 0.587891 15.3122 1.3125 15.3122C2.03711 15.3122 2.625 14.7271 2.625 13.9997C2.625 10.1388 5.76406 6.99974 9.625 6.99974ZM26.6875 12.6872C25.9629 12.6872 25.375 13.2751 25.375 13.9997C25.375 17.8601 22.2348 20.9997 18.375 20.9997H10.5L10.5006 17.9372C10.5006 17.4066 10.1809 16.9283 9.69016 16.7248C9.19939 16.5214 8.63516 16.6357 8.25781 17.0076L3.88227 21.3826C3.36968 21.895 3.36968 22.7262 3.88227 23.2386L8.25781 27.6136C8.6339 27.9888 9.19789 28.1016 9.68844 27.8982C10.179 27.6948 10.5 27.2177 10.5 26.6872V23.6247H18.375C23.6824 23.6247 28 19.3061 28 13.9997C28 13.2779 27.4148 12.6872 26.6875 12.6872Z" fill="#8EB4CC"/>
</g>
<defs>
<clipPath id="clip0_149_518">
<rect width="28" height="28" fill="white"/>
</clipPath>
</defs>
</svg>
