<svg width="28" height="21" viewBox="0 0 28 21" fill="none" xmlns="http://www.w3.org/2000/svg">
<path d="M13.9607 15.0568C12.6482 15.0568 11.55 16.1232 11.55 17.3906C11.55 18.658 12.6468 19.6875 13.9607 19.6875C15.2745 19.6875 16.45 18.658 16.45 17.3906C16.45 16.1232 15.3519 15.0568 13.9607 15.0568ZM27.6719 6.17695C24.2069 3.0852 19.2238 1.3125 14 1.3125C8.77628 1.3125 3.79403 3.0852 0.326973 6.17695C-0.0941212 6.55122 -0.110527 7.17404 0.290056 7.56779C0.686519 7.9613 1.35362 7.97795 1.77362 7.6024C4.8169 4.85625 9.31003 3.28125 14 3.28125C18.69 3.28125 23.1438 4.85666 26.2282 7.6043C26.4294 7.78477 26.6919 7.875 26.9107 7.875C27.1882 7.875 27.4658 7.77246 27.671 7.56865C28.1094 7.17363 28.0963 6.5543 27.6719 6.17695ZM14 8.52715C10.6475 8.52715 7.5294 9.67559 5.22378 11.7571C4.80378 12.1365 4.79065 12.76 5.19315 13.1496C5.59649 13.5444 6.26109 13.5534 6.67803 13.1778C8.59253 11.4516 11.1913 10.5 14 10.5C16.8088 10.5 19.4075 11.4512 21.3238 13.1787C21.525 13.3629 21.7482 13.4531 22.0107 13.4531C22.2854 13.4531 22.5615 13.3519 22.768 13.1506C23.1699 12.7597 23.1562 12.1367 22.7379 11.7586C20.4707 9.67559 17.3513 8.52715 14 8.52715Z" fill="#92A7BA"/>
</svg>
